<?xml version="1.0" standalone="no"?>
<!DOCTYPE svg PUBLIC "-//W3C//DTD SVG 20010904//EN"
 "http://www.w3.org/TR/2001/REC-SVG-20010904/DTD/svg10.dtd">
<svg version="1.0" xmlns="http://www.w3.org/2000/svg"
 width="216.000000pt" height="216.000000pt" viewBox="0 0 216.000000 216.000000"
 preserveAspectRatio="xMidYMid meet">
<metadata>
Created by potrace 1.10, written by Peter Selinger 2001-2011
</metadata>
<g transform="translate(0.000000,216.000000) scale(0.100000,-0.100000)"
fill="#61dafb" stroke="none">
<path d="M938 1993 c7 -3 16 -2 19 1 4 3 -2 6 -13 5 -11 0 -14 -3 -6 -6z"/>
<path d="M1100 1991 c0 -5 6 -14 14 -20 12 -10 13 -8 9 8 -5 21 -23 30 -23 12z"/>
<path d="M1418 1993 c7 -3 16 -2 19 1 4 3 -2 6 -13 5 -11 0 -14 -3 -6 -6z"/>
<path d="M1008 1973 c6 -2 18 -2 25 0 6 3 1 5 -13 5 -14 0 -19 -2 -12 -5z"/>
<path d="M1208 1973 c7 -3 16 -2 19 1 4 3 -2 6 -13 5 -11 0 -14 -3 -6 -6z"/>
<path d="M968 1953 c7 -3 16 -2 19 1 4 3 -2 6 -13 5 -11 0 -14 -3 -6 -6z"/>
<path d="M955 1921 c-89 -15 -178 -42 -252 -76 -68 -31 -77 -33 -74 -12 2 11
-2 9 -39 -18 -19 -14 -30 -25 -25 -25 5 0 17 8 27 17 13 11 22 13 29 6 7 -7 3
-15 -13 -25 -195 -131 -301 -427 -269 -755 12 -136 37 -228 87 -323 38 -73
131 -186 150 -184 7 1 12 -3 11 -9 -3 -17 94 -85 159 -111 115 -46 338 -77
456 -62 51 7 55 9 77 52 13 25 46 63 73 85 26 23 48 45 48 51 0 5 -4 6 -10 3
-5 -3 -10 -1 -10 5 0 7 7 9 15 6 20 -7 38 38 30 75 -4 16 -21 40 -38 55 -30
25 -36 26 -107 21 -74 -5 -75 -5 -35 9 22 8 44 19 49 24 14 14 29 12 20 -2 -4
-7 2 -5 13 5 11 9 23 14 28 10 4 -5 5 -2 1 5 -6 11 -11 11 -24 0 -10 -7 -7 -1
4 12 12 14 25 35 29 48 3 12 10 20 15 17 4 -3 6 5 3 17 -4 19 -3 20 6 8 9 -12
11 -9 11 13 0 28 27 97 37 97 3 0 23 -5 44 -12 35 -10 38 -14 32 -37 -3 -15
-2 -22 3 -18 5 5 10 13 10 18 1 5 2 14 3 19 0 6 13 4 31 -5 16 -8 38 -15 50
-15 11 0 20 -5 20 -11 0 -6 9 -8 20 -4 18 6 20 2 20 -44 0 -30 -11 -81 -29
-128 -15 -43 -31 -98 -34 -123 -3 -25 -3 -37 0 -28 2 10 9 18 14 18 5 0 9 15
9 33 0 37 24 110 33 101 3 -3 3 5 0 18 -3 14 -1 18 4 11 7 -10 9 2 16 105 2
20 6 22 32 16 17 -4 36 -7 42 -7 9 0 10 -4 2 -13 -12 -15 -4 -34 14 -33 9 0 9
2 0 6 -18 7 -16 20 3 27 17 7 16 -11 -7 -107 -11 -48 -11 -48 -32 -30 -19 16
-20 16 -8 1 13 -17 7 -78 -6 -64 -3 3 -12 1 -20 -5 -17 -15 -17 -4 2 25 13 20
13 23 0 23 -8 0 -15 -9 -15 -19 0 -11 -4 -16 -11 -12 -7 4 -7 -1 1 -15 9 -18
14 -20 26 -10 16 13 19 2 5 -20 -5 -8 -14 -10 -21 -6 -9 5 -11 4 -6 -3 4 -7
-4 -24 -18 -39 -15 -15 -26 -24 -26 -20 0 4 -9 3 -20 -3 -11 -6 -19 -16 -18
-23 6 -24 -38 -55 -71 -51 -17 2 -41 -1 -53 -6 -17 -6 -10 -7 27 -4 47 4 49 4
27 -11 -40 -29 -129 -65 -173 -71 -24 -4 -55 -11 -69 -17 -50 -21 8 -19 87 3
218 60 357 202 432 441 l18 55 -191 58 c-105 32 -198 60 -207 63 -12 3 -18 -5
-23 -34 -9 -55 -49 -135 -91 -181 -50 -56 -109 -77 -215 -76 -75 0 -92 4 -139
30 -67 36 -105 87 -133 178 -30 96 -33 348 -5 441 43 141 131 220 262 232 119
11 209 -29 271 -122 37 -53 45 -91 18 -81 -8 3 -12 2 -9 -4 7 -12 2 -13 229
39 98 23 187 41 198 41 24 0 20 15 -33 126 -77 163 -214 276 -394 324 -89 24
-321 35 -410 21z m343 -26 c63 -6 102 -16 102 -25 0 -4 18 -11 39 -15 22 -4
45 -13 52 -21 6 -8 18 -14 26 -14 23 0 9 -24 -18 -31 -22 -6 -22 -7 -3 -8 12
-1 27 5 33 13 11 13 15 12 32 -5 11 -11 24 -17 28 -14 5 2 11 -1 14 -9 6 -15
-22 -38 -60 -50 -13 -4 -23 -11 -23 -16 0 -4 -17 -11 -37 -15 -21 -4 -41 -11
-44 -17 -4 -6 -38 -13 -75 -15 -53 -4 -80 -1 -119 15 -27 10 -57 17 -65 15
-12 -4 -13 -3 -1 5 11 8 10 15 -8 41 -12 17 -27 31 -32 31 -5 0 -8 3 -8 8 4
22 -15 72 -28 72 -13 0 -13 -3 1 -25 9 -13 16 -29 16 -35 0 -6 12 -27 27 -46
21 -29 24 -37 13 -44 -10 -6 -6 -10 16 -15 41 -10 93 -34 72 -35 -10 0 -18 -5
-18 -11 0 -5 5 -7 11 -3 6 4 42 6 78 5 53 -1 80 4 124 24 32 14 65 25 73 25 8
0 35 13 59 30 l44 30 28 -30 c15 -16 34 -36 40 -44 22 -26 63 -104 63 -120 0
-8 4 -16 9 -18 5 -1 11 -12 13 -23 2 -15 -3 -21 -22 -23 -31 -3 -140 -42 -157
-55 -7 -5 -28 -7 -47 -5 -19 2 -33 1 -30 -3 4 -7 -72 -29 -99 -29 -8 0 -19 18
-26 41 -7 22 -19 43 -27 46 -9 3 -12 14 -10 29 3 14 1 22 -5 19 -5 -4 -6 -12
-2 -18 4 -7 -9 2 -29 19 -20 18 -63 42 -95 54 -48 18 -70 21 -128 16 -38 -4
-78 -7 -88 -7 -9 0 -15 -4 -12 -9 8 -12 -26 -22 -40 -10 -16 13 -28 0 -14 -17
14 -16 -2 -18 -19 -1 -9 9 -9 15 1 27 10 14 10 14 -4 3 -13 -9 -23 -10 -45 -1
-45 17 -107 13 -163 -11 -55 -24 -63 -35 -31 -45 24 -7 40 1 40 20 0 18 73 38
110 30 16 -4 41 -16 57 -28 15 -12 23 -15 18 -8 -6 10 -4 12 5 6 10 -6 7 -14
-14 -32 -16 -13 -39 -45 -52 -71 -13 -26 -24 -42 -24 -37 0 13 -20 -17 -20
-30 0 -5 5 -3 10 5 6 9 10 10 10 3 0 -6 -4 -15 -10 -18 -5 -3 -10 -28 -10 -55
l0 -49 -35 15 c-77 32 -126 16 -239 -74 -59 -47 -160 -111 -176 -112 -8 0 5
215 15 229 4 8 8 27 7 42 0 16 4 29 10 29 6 0 8 13 6 30 -2 16 -2 31 1 32 7 4
45 79 47 93 2 21 16 45 23 40 4 -2 7 6 7 18 -1 13 4 21 12 19 8 -1 11 2 8 7
-4 5 5 18 19 30 15 11 26 22 25 26 0 3 4 13 9 23 9 15 12 15 22 2 9 -13 10
-13 6 1 -6 20 45 70 73 72 10 1 17 4 15 7 -2 4 10 15 27 25 22 13 29 14 24 4
-4 -8 -1 -6 6 3 15 17 113 58 158 65 115 18 161 21 270 17 69 -3 140 -7 158
-9z m-588 -355 c0 -5 -5 -10 -11 -10 -5 0 -7 5 -4 10 3 6 8 10 11 10 2 0 4 -4
4 -10z m1039 -74 c-2 -2 -22 -9 -43 -15 -22 -5 -35 -6 -30 -2 9 9 37 18 63 20
8 0 12 -1 10 -3z m-1014 -216 c10 -11 22 -20 28 -20 5 0 -1 9 -14 20 -26 21
-14 27 13 7 14 -11 17 -34 19 -138 1 -75 6 -127 13 -131 6 -4 7 -10 3 -14 -9
-10 -47 38 -42 54 3 7 0 10 -5 7 -5 -3 -21 2 -36 11 -40 27 -109 34 -163 17
-63 -20 -101 -25 -101 -12 0 6 -5 7 -11 3 -6 -3 -7 -9 -2 -13 13 -9 10 -34 -6
-39 -9 -3 -11 0 -5 9 6 11 5 12 -8 2 -8 -7 -18 -10 -21 -6 -4 3 -7 1 -7 -5 0
-7 6 -12 13 -12 7 0 3 -7 -7 -15 -18 -14 -21 -13 -31 12 -14 32 -9 53 11 53 8
0 24 16 36 35 16 25 29 34 41 31 14 -3 16 -1 7 9 -8 9 -6 14 5 19 11 4 14 2
10 -7 -4 -6 0 -4 9 7 8 10 19 15 25 11 6 -3 21 1 33 10 23 16 23 16 -7 10 -29
-6 -29 -6 -11 9 11 9 24 16 29 16 4 0 6 4 2 9 -3 6 8 8 26 6 29 -4 30 -3 14 9
-18 13 -18 14 3 25 11 6 24 11 29 11 4 -1 -3 -7 -17 -14 l-25 -14 27 1 c19 2
25 7 24 22 -4 30 73 33 99 5z m-335 -181 c0 -7 -25 -19 -39 -19 -4 0 -8 6 -8
13 0 6 11 12 24 12 13 0 23 -3 23 -6z m288 -26 c21 -9 43 -25 50 -35 7 -9 20
-25 29 -34 25 -25 45 -66 39 -81 -3 -7 -1 -15 5 -19 5 -3 7 -15 4 -27 -5 -17
-4 -18 4 -8 8 12 11 10 16 -11 4 -14 18 -36 31 -49 13 -12 24 -28 24 -35 0 -6
7 -15 16 -18 10 -4 13 -2 8 7 -4 6 5 1 19 -12 15 -14 27 -21 27 -18 0 4 17 -2
37 -13 42 -22 98 -25 156 -9 74 20 46 2 -55 -36 -160 -61 -258 -58 -330 7 -24
22 -42 51 -53 86 -30 95 -75 93 -139 -7 -24 -37 -55 -74 -69 -84 -26 -17 -26
-17 -38 21 -6 20 -16 42 -22 47 -7 7 -7 5 -2 -5 5 -8 5 -12 1 -8 -4 3 -8 10
-7 15 0 4 -7 18 -15 31 -9 13 -13 30 -10 37 3 8 0 15 -7 18 -7 2 -12 24 -12
56 0 41 -4 55 -19 63 -17 10 -17 12 10 34 31 25 50 31 38 12 -4 -7 -3 -8 5 -4
6 4 9 11 6 16 -3 5 4 14 16 21 15 8 18 13 10 19 -9 5 -8 9 4 13 9 4 13 3 10
-3 -9 -15 5 -12 50 10 50 24 116 25 163 3z m-298 -149 c0 -8 -4 -12 -10 -9 -5
3 -10 10 -10 16 0 5 5 9 10 9 6 0 10 -7 10 -16z m292 -126 c12 -22 14 -28 17
-54 0 -6 10 -21 21 -34 22 -25 17 -48 -6 -29 -21 17 -17 2 6 -21 10 -10 22
-15 25 -10 3 4 -1 11 -7 13 -9 4 -7 6 3 6 22 1 45 -25 27 -32 -7 -2 1 -4 17
-4 17 0 50 -6 74 -12 24 -6 62 -9 85 -6 29 4 37 3 26 -5 -21 -14 -66 -12 -127
3 -29 8 -50 10 -47 5 3 -4 -5 -8 -18 -9 -22 0 -22 -1 -3 -8 11 -5 22 -5 25 -1
3 4 33 3 67 -3 47 -7 73 -6 107 4 29 8 41 16 33 21 -8 5 -7 8 6 9 20 2 22 2
62 13 16 4 33 12 36 18 4 6 20 11 37 12 17 0 28 4 26 8 -2 3 9 11 25 16 31 11
74 5 66 -9 -3 -4 3 -7 12 -7 10 1 29 -2 43 -5 14 -4 19 -4 11 -1 -9 5 -10 8
-2 14 7 3 -2 7 -19 7 -17 0 -36 5 -42 11 -9 9 -4 12 20 12 36 0 87 -21 73 -30
-6 -3 -1 -11 10 -19 12 -7 18 -8 14 -2 -3 6 -2 11 4 11 15 0 26 -69 12 -83 -7
-7 -11 -7 -11 -1 0 6 -7 19 -15 30 -14 18 -14 18 -15 -11 0 -23 3 -27 10 -15
7 11 9 6 7 -18 -4 -31 -37 -81 -37 -55 0 7 5 15 10 18 6 3 10 13 10 22 0 11
-6 7 -21 -11 -11 -15 -19 -33 -16 -40 7 -19 -17 -28 -33 -13 -10 9 -11 9 -6 0
4 -7 0 -23 -8 -35 -9 -12 -16 -32 -17 -43 0 -11 -3 -14 -6 -8 -3 10 -8 9 -20
-2 -17 -17 -44 -19 -91 -6 -36 11 -44 5 -10 -8 27 -10 -98 -5 -152 5 -19 4
-51 8 -70 10 -72 5 -115 19 -114 38 2 15 0 16 -15 2 -13 -12 -19 -12 -33 -2
-10 7 -14 16 -10 20 4 4 -4 5 -18 2 -19 -5 -32 1 -56 23 -18 17 -35 27 -39 23
-5 -4 -5 1 -2 10 4 12 2 15 -8 12 -8 -3 -16 3 -20 15 -3 12 -11 19 -16 16 -5
-4 -12 1 -15 9 -3 9 -11 13 -18 9 -6 -4 -4 2 4 13 8 10 10 16 5 11 -10 -8 -45
20 -45 37 0 6 13 20 30 31 16 11 37 36 46 57 16 36 34 50 34 28 0 -5 -5 -10
-11 -10 -5 0 -7 -5 -3 -11 5 -8 10 -6 16 5 5 9 6 21 3 27 -8 12 13 39 31 39 7
0 19 -10 26 -22z m948 -233 c-7 -9 -15 -13 -19 -10 -3 3 1 10 9 15 21 14 24
12 10 -5z"/>
<path d="M1060 1880 c0 -5 5 -10 10 -10 6 0 10 5 10 10 0 6 -4 10 -10 10 -5 0
-10 -4 -10 -10z"/>
<path d="M938 1863 c7 -3 16 -2 19 1 4 3 -2 6 -13 5 -11 0 -14 -3 -6 -6z"/>
<path d="M878 1853 c7 -3 16 -2 19 1 4 3 -2 6 -13 5 -11 0 -14 -3 -6 -6z"/>
<path d="M1345 1850 c-13 -6 -15 -9 -5 -9 8 0 22 4 30 9 18 12 2 12 -25 0z"/>
<path d="M918 1843 c7 -3 16 -2 19 1 4 3 -2 6 -13 5 -11 0 -14 -3 -6 -6z"/>
<path d="M1440 1809 c0 -5 5 -7 10 -4 6 3 10 8 10 11 0 2 -4 4 -10 4 -5 0 -10
-5 -10 -11z"/>
<path d="M1271 1794 c0 -11 3 -14 6 -6 3 7 2 16 -1 19 -3 4 -6 -2 -5 -13z"/>
<path d="M690 1785 c-14 -8 -20 -14 -14 -15 5 0 19 7 30 15 24 18 16 19 -16 0z"/>
<path d="M1527 1758 c6 -11 43 -10 43 1 0 5 -11 8 -24 7 -13 0 -22 -4 -19 -8z"/>
<path d="M620 1725 c-7 -9 -8 -15 -2 -15 5 0 12 7 16 15 3 8 4 15 2 15 -2 0
-9 -7 -16 -15z"/>
<path d="M1619 1718 c12 -17 9 -23 -12 -19 -5 1 -6 -3 -3 -8 6 -9 31 -9 41 0
3 3 -5 14 -17 25 -18 15 -20 16 -9 2z"/>
<path d="M590 1690 c0 -6 7 -10 15 -10 8 0 15 2 15 4 0 2 -7 6 -15 10 -8 3
-15 1 -15 -4z"/>
<path d="M547 1663 c-4 -3 -7 -11 -7 -17 0 -6 5 -5 12 2 6 6 9 14 7 17 -3 3
-9 2 -12 -2z"/>
<path d="M501 1614 c0 -11 3 -14 6 -6 3 7 2 16 -1 19 -3 4 -6 -2 -5 -13z"/>
<path d="M530 1619 c0 -5 5 -7 10 -4 6 3 10 8 10 11 0 2 -4 4 -10 4 -5 0 -10
-5 -10 -11z"/>
<path d="M1311 1616 c2 -2 22 -6 44 -9 28 -5 34 -4 20 3 -19 8 -73 14 -64 6z"/>
<path d="M1243 1595 c0 -7 6 -11 14 -8 7 3 13 6 13 8 0 2 -6 5 -13 8 -8 3 -14
-1 -14 -8z"/>
<path d="M1680 1600 c0 -5 5 -10 11 -10 5 0 7 5 4 10 -3 6 -8 10 -11 10 -2 0
-4 -4 -4 -10z"/>
<path d="M686 1592 c-3 -5 8 -6 25 -4 16 2 29 6 29 8 0 8 -49 4 -54 -4z"/>
<path d="M1270 1583 c-13 -15 -12 -16 4 -10 10 4 20 7 22 7 2 0 4 5 4 10 0 15
-13 12 -30 -7z"/>
<path d="M1320 1580 c0 -13 38 -19 43 -6 3 6 -6 12 -19 12 -13 1 -24 -2 -24
-6z"/>
<path d="M645 1569 c-11 -17 1 -21 15 -4 8 9 8 15 2 15 -6 0 -14 -5 -17 -11z"/>
<path d="M785 1560 c-16 -7 -17 -9 -3 -9 9 -1 20 4 23 9 7 11 7 11 -20 0z"/>
<path d="M1701 1554 c0 -11 3 -14 6 -6 3 7 2 16 -1 19 -3 4 -6 -2 -5 -13z"/>
<path d="M1725 1550 c3 -5 8 -10 11 -10 2 0 4 5 4 10 0 6 -5 10 -11 10 -5 0
-7 -4 -4 -10z"/>
<path d="M460 1541 c0 -6 4 -13 10 -16 6 -3 7 1 4 9 -7 18 -14 21 -14 7z"/>
<path d="M793 1533 c9 -2 23 -2 30 0 6 3 -1 5 -18 5 -16 0 -22 -2 -12 -5z"/>
<path d="M615 1509 c-16 -10 -40 -24 -52 -30 -13 -7 -23 -16 -23 -21 0 -4 -5
-8 -11 -8 -6 0 -30 -13 -54 -30 -24 -16 -48 -30 -53 -30 -12 0 -36 -29 -30
-36 3 -3 13 2 21 10 9 10 23 13 33 9 12 -4 15 -3 10 5 -4 7 -3 12 3 12 5 0 15
-8 20 -17 6 -10 11 -13 11 -7 0 5 -5 15 -12 22 -9 9 -7 13 8 18 10 4 41 25 68
46 47 37 70 46 79 31 2 -5 2 -2 0 6 -2 8 2 18 9 22 7 4 10 10 8 12 -3 2 -18
-4 -35 -14z"/>
<path d="M738 1523 c6 -2 18 -2 25 0 6 3 1 5 -13 5 -14 0 -19 -2 -12 -5z"/>
<path d="M1400 1520 c-18 -12 -2 -12 25 0 13 6 15 9 5 9 -8 0 -22 -4 -30 -9z"/>
<path d="M533 1503 c-18 -9 -33 -20 -33 -25 0 -5 10 -3 23 3 12 7 33 18 47 26
36 19 1 15 -37 -4z"/>
<path d="M800 1501 c0 -6 4 -13 10 -16 6 -3 7 1 4 9 -7 18 -14 21 -14 7z"/>
<path d="M1385 1491 c-3 -5 -1 -12 5 -16 5 -3 10 1 10 9 0 18 -6 21 -15 7z"/>
<path d="M1635 1480 c-16 -7 -17 -9 -3 -9 9 -1 20 4 23 9 7 11 7 11 -20 0z"/>
<path d="M803 1435 c0 -8 4 -12 9 -9 5 3 6 10 3 15 -9 13 -12 11 -12 -6z"/>
<path d="M1416 1434 c-17 -12 -17 -14 -4 -14 9 0 20 5 23 11 11 17 2 18 -19 3z"/>
<path d="M1468 1433 c6 -2 18 -2 25 0 6 3 1 5 -13 5 -14 0 -19 -2 -12 -5z"/>
<path d="M534 1406 c-10 -8 -17 -17 -14 -19 3 -3 14 1 24 9 11 7 17 16 15 19
-3 3 -14 -2 -25 -9z"/>
<path d="M588 1363 c7 -3 16 -2 19 1 4 3 -2 6 -13 5 -11 0 -14 -3 -6 -6z"/>
<path d="M668 1353 c7 -3 16 -2 19 1 4 3 -2 6 -13 5 -11 0 -14 -3 -6 -6z"/>
<path d="M715 1350 c-7 -12 19 -24 37 -17 7 3 2 6 -12 7 l-25 2 25 8 c23 7 23
8 3 9 -12 1 -25 -4 -28 -9z"/>
<path d="M361 1264 c0 -11 3 -14 6 -6 3 7 2 16 -1 19 -3 4 -6 -2 -5 -13z"/>
<path d="M480 1263 c0 -13 39 -43 44 -35 2 4 -7 15 -20 25 -13 10 -24 14 -24
10z"/>
<path d="M403 1184 c0 -16 13 -19 21 -5 3 5 0 11 -7 14 -8 3 -14 -1 -14 -9z"/>
<path d="M425 1160 c-3 -5 -1 -10 4 -10 6 0 11 5 11 10 0 6 -2 10 -4 10 -3 0
-8 -4 -11 -10z"/>
<path d="M740 1210 c8 -5 20 -10 25 -10 6 0 3 5 -5 10 -8 5 -19 10 -25 10 -5
0 -3 -5 5 -10z"/>
<path d="M586 1111 c-12 -4 7 -7 46 -7 36 1 64 4 61 9 -5 9 -82 8 -107 -2z"/>
<path d="M518 1103 c6 -2 18 -2 25 0 6 3 1 5 -13 5 -14 0 -19 -2 -12 -5z"/>
<path d="M603 1043 c9 -2 23 -2 30 0 6 3 -1 5 -18 5 -16 0 -22 -2 -12 -5z"/>
<path d="M540 1030 c-9 -6 -10 -10 -3 -10 6 0 15 5 18 10 8 12 4 12 -15 0z"/>
<path d="M660 1020 c0 -5 5 -10 11 -10 5 0 7 5 4 10 -3 6 -8 10 -11 10 -2 0
-4 -4 -4 -10z"/>
<path d="M723 981 c0 -11 5 -19 11 -18 5 1 13 -9 17 -23 5 -18 7 -20 8 -7 1
11 -8 30 -18 44 -18 22 -20 22 -18 4z"/>
<path d="M507 979 c-9 -5 -23 -7 -30 -3 -9 5 -9 4 -1 -5 9 -10 19 -9 45 3 19
8 27 15 19 15 -8 0 -23 -4 -33 -10z"/>
<path d="M390 938 c0 -6 3 -8 7 -5 3 4 13 1 22 -6 14 -11 14 -10 2 6 -15 20
-31 22 -31 5z"/>
<path d="M471 934 c0 -11 3 -14 6 -6 3 7 2 16 -1 19 -3 4 -6 -2 -5 -13z"/>
<path d="M640 924 c0 -8 5 -12 10 -9 6 4 8 11 5 16 -9 14 -15 11 -15 -7z"/>
<path d="M565 880 c-13 -5 -14 -9 -5 -9 8 0 24 4 35 9 13 5 14 9 5 9 -8 0 -24
-4 -35 -9z"/>
<path d="M690 877 c14 -8 27 -12 30 -10 7 6 -23 23 -40 23 -8 0 -4 -6 10 -13z"/>
<path d="M649 872 c11 -8 11 -10 0 -15 -10 -4 -8 -6 4 -6 21 -1 18 21 -4 27
-12 3 -12 2 0 -6z"/>
<path d="M776 815 c4 -8 11 -15 16 -15 6 0 5 6 -2 15 -7 8 -14 15 -16 15 -2 0
-1 -7 2 -15z"/>
<path d="M706 807 c3 -10 9 -15 12 -12 3 3 0 11 -7 18 -10 9 -11 8 -5 -6z"/>
<path d="M443 766 l-3 -31 15 29 c18 34 18 33 3 33 -7 0 -14 -14 -15 -31z"/>
<path d="M570 786 c7 -7 13 -7 20 0 6 6 3 10 -10 10 -13 0 -16 -4 -10 -10z"/>
<path d="M823 770 c14 -11 29 -20 34 -20 11 1 -37 40 -49 40 -6 0 1 -9 15 -20z"/>
<path d="M746 765 c4 -8 8 -15 10 -15 2 0 4 7 4 15 0 8 -4 15 -10 15 -5 0 -7
-7 -4 -15z"/>
<path d="M810 751 c0 -10 19 -25 25 -20 1 2 -3 10 -11 17 -8 7 -14 8 -14 3z"/>
<path d="M766 725 c-3 -10 -11 -13 -18 -9 -8 4 -10 3 -5 -2 5 -5 13 -9 18 -9
5 0 8 -4 7 -10 -2 -5 -7 -9 -13 -7 -5 2 -4 -2 3 -10 11 -11 14 -10 22 2 5 8 6
18 4 22 -6 9 4 11 66 8 25 -1 42 2 38 6 -4 4 -29 7 -55 7 -27 0 -51 4 -54 9
-3 5 -9 2 -13 -7z"/>
<path d="M477 702 c1 -8 3 -17 3 -21 0 -4 7 -8 15 -8 10 0 12 4 5 12 -5 7 -6
16 -2 20 4 5 2 5 -5 2 -6 -4 -13 -4 -16 0 -2 5 -2 2 0 -5z"/>
<path d="M515 711 c-3 -5 -1 -12 4 -15 5 -3 11 1 15 9 6 16 -9 21 -19 6z"/>
<path d="M928 659 c15 -6 30 -5 40 1 13 7 8 9 -23 9 -35 0 -37 -1 -17 -10z"/>
<path d="M855 630 c3 -5 11 -10 16 -10 6 0 7 5 4 10 -3 6 -11 10 -16 10 -6 0
-7 -4 -4 -10z"/>
<path d="M898 623 c6 -2 18 -2 25 0 6 3 1 5 -13 5 -14 0 -19 -2 -12 -5z"/>
<path d="M642 737 c-16 -37 -15 -41 4 -23 8 9 14 24 11 34 -3 13 -6 11 -15
-11z"/>
<path d="M597 693 c-4 -3 -7 -11 -7 -17 0 -6 5 -5 12 2 6 6 9 14 7 17 -3 3 -9
2 -12 -2z"/>
<path d="M624 676 c-3 -9 -12 -16 -20 -16 -8 0 -14 -4 -14 -10 0 -5 4 -10 8
-10 14 0 46 39 39 46 -4 4 -9 -1 -13 -10z"/>
<path d="M1258 623 c7 -3 16 -2 19 1 4 3 -2 6 -13 5 -11 0 -14 -3 -6 -6z"/>
<path d="M535 610 c-3 -6 1 -7 9 -4 18 7 21 14 7 14 -6 0 -13 -4 -16 -10z"/>
<path d="M675 600 c3 -5 8 -10 11 -10 2 0 4 5 4 10 0 6 -5 10 -11 10 -5 0 -7
-4 -4 -10z"/>
<path d="M1034 578 c0 -16 1 -16 21 0 11 9 21 18 23 18 2 1 -7 1 -20 1 -15 -1
-24 -8 -24 -19z"/>
<path d="M640 570 c0 -5 5 -10 11 -10 5 0 7 5 4 10 -3 6 -8 10 -11 10 -2 0 -4
-4 -4 -10z"/>
<path d="M700 570 c0 -5 7 -10 16 -10 8 0 12 5 9 10 -3 6 -10 10 -16 10 -5 0
-9 -4 -9 -10z"/>
<path d="M1183 563 c9 -2 23 -2 30 0 6 3 -1 5 -18 5 -16 0 -22 -2 -12 -5z"/>
<path d="M603 546 c0 -15 22 -15 34 0 4 5 4 6 -1 2 -5 -4 -14 -3 -21 2 -8 7
-12 5 -12 -4z"/>
<path d="M1300 520 c0 -5 5 -10 10 -10 6 0 10 5 10 10 0 6 -4 10 -10 10 -5 0
-10 -4 -10 -10z"/>
<path d="M690 459 c0 -11 27 -12 34 -1 2 4 -4 9 -15 9 -10 1 -19 -2 -19 -8z"/>
<path d="M888 393 c6 -2 18 -2 25 0 6 3 1 5 -13 5 -14 0 -19 -2 -12 -5z"/>
<path d="M678 1913 c6 -2 18 -2 25 0 6 3 1 5 -13 5 -14 0 -19 -2 -12 -5z"/>
<path d="M1490 1916 c0 -2 7 -7 16 -10 8 -3 12 -2 9 4 -6 10 -25 14 -25 6z"/>
<path d="M715 1900 c-8 -13 9 -20 24 -11 10 6 9 10 -3 14 -8 3 -18 2 -21 -3z"/>
<path d="M480 1829 c0 -5 5 -7 10 -4 6 3 10 8 10 11 0 2 -4 4 -10 4 -5 0 -10
-5 -10 -11z"/>
<path d="M528 1833 c7 -3 16 -2 19 1 4 3 -2 6 -13 5 -11 0 -14 -3 -6 -6z"/>
<path d="M1620 1830 c-9 -6 -10 -10 -3 -10 6 0 15 5 18 10 8 12 4 12 -15 0z"/>
<path d="M481 1784 c0 -11 3 -14 6 -6 3 7 2 16 -1 19 -3 4 -6 -2 -5 -13z"/>
<path d="M507 1745 c-8 -8 -18 -11 -21 -7 -4 3 -4 -2 0 -11 3 -10 7 -17 8 -15
1 2 10 13 20 26 21 24 16 30 -7 7z"/>
<path d="M1752 1690 c0 -14 2 -19 5 -12 2 6 2 18 0 25 -3 6 -5 1 -5 -13z"/>
<path d="M405 1659 c-4 -6 -5 -12 -2 -15 2 -3 7 2 10 11 7 17 1 20 -8 4z"/>
<path d="M321 1594 c0 -11 3 -14 6 -6 3 7 2 16 -1 19 -3 4 -6 -2 -5 -13z"/>
<path d="M1784 1578 c0 -10 1 -18 3 -18 1 0 7 8 12 18 7 13 6 19 -2 19 -7 0
-13 -9 -13 -19z"/>
<path d="M1831 1554 c0 -11 3 -14 6 -6 3 7 2 16 -1 19 -3 4 -6 -2 -5 -13z"/>
<path d="M1118 1543 c7 -3 16 -2 19 1 4 3 -2 6 -13 5 -11 0 -14 -3 -6 -6z"/>
<path d="M1160 1530 c8 -5 28 -10 44 -10 39 0 30 6 -19 13 -27 4 -35 3 -25 -3z"/>
<path d="M1108 1523 c7 -3 16 -2 19 1 4 3 -2 6 -13 5 -11 0 -14 -3 -6 -6z"/>
<path d="M928 1480 c14 -17 16 -34 2 -25 -5 3 -17 2 -26 -3 -12 -6 -7 -9 18
-8 25 1 34 5 34 18 0 9 -2 15 -5 13 -2 -3 -11 1 -20 7 -13 10 -14 10 -3 -2z"/>
<path d="M1305 1460 c-4 -6 -12 -7 -18 -4 -7 4 -8 3 -4 -1 13 -15 34 -14 34 1
0 17 -4 18 -12 4z"/>
<path d="M320 1440 c0 -5 5 -10 11 -10 5 0 7 5 4 10 -3 6 -8 10 -11 10 -2 0
-4 -4 -4 -10z"/>
<path d="M1688 1403 c6 -2 18 -2 25 0 6 3 1 5 -13 5 -14 0 -19 -2 -12 -5z"/>
<path d="M862 1374 c-7 -8 -8 -14 -3 -14 10 0 25 19 20 25 -2 1 -10 -3 -17
-11z"/>
<path d="M850 1293 c0 -4 5 -15 10 -23 8 -13 10 -13 10 2 0 9 -4 20 -10 23 -5
3 -10 3 -10 -2z"/>
<path d="M840 1210 c0 -5 5 -10 10 -10 6 0 10 5 10 10 0 6 -4 10 -10 10 -5 0
-10 -4 -10 -10z"/>
<path d="M842 1100 c0 -14 2 -19 5 -12 2 6 2 18 0 25 -3 6 -5 1 -5 -13z"/>
<path d="M862 1050 c0 -14 2 -19 5 -12 2 6 2 18 0 25 -3 6 -5 1 -5 -13z"/>
<path d="M1364 1021 c0 -11 4 -17 8 -15 4 3 8 12 8 20 0 8 -4 14 -8 14 -4 0
-8 -9 -8 -19z"/>
<path d="M1497 1029 c7 -7 15 -10 18 -7 3 3 -2 9 -12 12 -14 6 -15 5 -6 -5z"/>
<path d="M851 994 c0 -11 3 -14 6 -6 3 7 2 16 -1 19 -3 4 -6 -2 -5 -13z"/>
<path d="M1627 949 c7 -7 15 -10 18 -7 3 3 -2 9 -12 12 -14 6 -15 5 -6 -5z"/>
<path d="M1820 941 c-8 -6 -19 -7 -25 -4 -6 4 -6 2 1 -6 11 -12 44 -5 44 10 0
11 -1 11 -20 0z"/>
<path d="M1740 930 c-9 -6 -10 -10 -3 -10 6 0 15 5 18 10 8 12 4 12 -15 0z"/>
<path d="M898 883 c7 -3 16 -2 19 1 4 3 -2 6 -13 5 -11 0 -14 -3 -6 -6z"/>
<path d="M1282 830 c0 -14 2 -19 5 -12 2 6 2 18 0 25 -3 6 -5 1 -5 -13z"/>
<path d="M1602 815 c0 -16 2 -22 5 -12 2 9 2 23 0 30 -3 6 -5 -1 -5 -18z"/>
<path d="M1642 820 c0 -14 2 -19 5 -12 2 6 2 18 0 25 -3 6 -5 1 -5 -13z"/>
<path d="M1283 785 c0 -8 4 -12 9 -9 5 3 6 10 3 15 -9 13 -12 11 -12 -6z"/>
<path d="M322 765 c0 -16 2 -22 5 -12 2 9 2 23 0 30 -3 6 -5 -1 -5 -18z"/>
<path d="M1613 750 c0 -16 4 -30 9 -30 10 0 10 31 0 48 -6 8 -9 2 -9 -18z"/>
<path d="M1826 734 c-3 -9 -11 -12 -18 -8 -7 4 -9 3 -5 -1 14 -16 33 -13 34 6
2 23 -3 24 -11 3z"/>
<path d="M1383 717 c0 -15 34 -20 42 -6 4 5 -2 6 -11 2 -12 -4 -15 -3 -10 5 4
7 1 12 -7 12 -7 0 -14 -6 -14 -13z"/>
<path d="M1591 704 c0 -11 3 -14 6 -6 3 7 2 16 -1 19 -3 4 -6 -2 -5 -13z"/>
<path d="M1421 691 c-8 -5 -9 -11 -3 -15 5 -3 12 1 16 9 6 17 6 18 -13 6z"/>
<path d="M1815 690 c-6 -9 11 -50 21 -50 2 0 0 9 -6 20 -6 11 -8 25 -5 30 3 6
4 10 1 10 -3 0 -8 -4 -11 -10z"/>
<path d="M1775 679 c-4 -6 -5 -12 -2 -15 2 -3 7 2 10 11 7 17 1 20 -8 4z"/>
<path d="M401 663 c-1 -17 16 -25 25 -12 4 7 3 9 -4 5 -5 -3 -13 0 -15 6 -4 9
-6 10 -6 1z"/>
<path d="M1651 660 c0 -8 4 -24 9 -35 5 -13 9 -14 9 -5 0 8 -4 24 -9 35 -5 13
-9 14 -9 5z"/>
<path d="M1786 653 c-6 -14 -5 -15 5 -6 7 7 10 15 7 18 -3 3 -9 -2 -12 -12z"/>
<path d="M430 586 c0 -9 5 -16 10 -16 6 0 10 4 10 9 0 6 -4 13 -10 16 -5 3
-10 -1 -10 -9z"/>
<path d="M480 561 c0 -11 4 -22 9 -25 4 -3 6 6 3 19 -5 30 -12 33 -12 6z"/>
<path d="M1736 572 c-3 -5 1 -9 9 -9 8 0 12 4 9 9 -3 4 -7 8 -9 8 -2 0 -6 -4
-9 -8z"/>
<path d="M514 501 c0 -11 5 -17 13 -14 10 4 11 9 2 19 -15 18 -15 18 -15 -5z"/>
<path d="M1405 489 c-4 -6 -5 -12 -2 -15 2 -3 7 2 10 11 7 17 1 20 -8 4z"/>
<path d="M1437 473 c-10 -9 -9 -23 1 -23 5 0 9 7 9 15 0 17 -1 18 -10 8z"/>
<path d="M1343 441 c-8 -12 -8 -22 -1 -32 8 -11 9 -11 5 2 -3 9 0 22 6 28 6 6
9 13 6 15 -3 3 -10 -3 -16 -13z"/>
<path d="M1308 393 c7 -3 16 -2 19 1 4 3 -2 6 -13 5 -11 0 -14 -3 -6 -6z"/>
<path d="M720 366 c0 -2 8 -10 18 -17 15 -13 16 -12 3 4 -13 16 -21 21 -21 13z"/>
<path d="M775 340 c-3 -6 1 -7 9 -4 18 7 21 14 7 14 -6 0 -13 -4 -16 -10z"/>
<path d="M818 343 c7 -3 16 -2 19 1 4 3 -2 6 -13 5 -11 0 -14 -3 -6 -6z"/>
<path d="M1433 343 c9 -2 25 -2 35 0 9 3 1 5 -18 5 -19 0 -27 -2 -17 -5z"/>
<path d="M1256 332 c-3 -5 1 -9 9 -9 8 0 12 4 9 9 -3 4 -7 8 -9 8 -2 0 -6 -4
-9 -8z"/>
<path d="M1293 243 c9 -2 25 -2 35 0 9 3 1 5 -18 5 -19 0 -27 -2 -17 -5z"/>
<path d="M537 73 c299 -2 787 -2 1085 0 299 1 55 2 -542 2 -597 0 -841 -1
-543 -2z"/>
<path d="M537 3 c299 -2 787 -2 1085 0 299 1 55 2 -542 2 -597 0 -841 -1 -543
-2z"/>
</g>
</svg>
